<svg xmlns="http://www.w3.org/2000/svg" width="292" height="70" viewBox="0 0 292 70"><defs><style>.a{fill:#fff;fill-rule:evenodd;}.b,.c{fill:#055bff;}.b{font-size:16px;font-family:Qanelas-Bold, Qanelas;font-weight:700;}</style></defs><g transform="translate(-119 -411)"><path class="a" d="M276.014.5H15.913l-.859,0-.5,0L13.78.52l-.35.006A22.725,22.725,0,0,0,9.934.833,11.413,11.413,0,0,0,6.683,1.9,10.991,10.991,0,0,0,3.917,3.911a10.649,10.649,0,0,0-2.01,2.76A11.238,11.238,0,0,0,.838,9.921,22.171,22.171,0,0,0,.527,13.4c-.007.238-.012.482-.016.808,0,.145,0,.145,0,.29,0,.263,0,.381-.007.521V55.594c0,.195,0,.195,0,.383,0,.148,0,.262.007.53,0,.142,0,.142,0,.284,0,.326.009.571.016.816a22.166,22.166,0,0,0,.312,3.483,11.207,11.207,0,0,0,1.069,3.25,10.568,10.568,0,0,0,2.013,2.75A10.7,10.7,0,0,0,6.683,69.1a11.47,11.47,0,0,0,3.253,1.076,23,23,0,0,0,3.492.306c.57.013,1.1.019,1.625.019l.86,0H276.976l.964,0c.523,0,1.073-.006,1.626-.019a22.706,22.706,0,0,0,3.487-.306,11.657,11.657,0,0,0,3.268-1.077,10.716,10.716,0,0,0,2.763-2.009A10.882,10.882,0,0,0,291.1,64.34a11.254,11.254,0,0,0,1.06-3.256,22.694,22.694,0,0,0,.322-3.472c0-.256.005-.519.006-.817,0-.224,0-.4,0-.821,0-.125,0-.254.007-.386.006-.425.007-.766.007-1.542V16.956c0-.968,0-1.394-.014-1.935,0-.407,0-.588,0-.815,0-.3,0-.561-.006-.8a22.758,22.758,0,0,0-.324-3.49A11.257,11.257,0,0,0,291.1,6.672,11.03,11.03,0,0,0,286.322,1.9a11.6,11.6,0,0,0-3.27-1.071A22.4,22.4,0,0,0,279.57.526l-.312-.005-.506-.008c-.311,0-.57-.008-.815-.009l-.953,0Z" transform="translate(118.5 410.5)"/><g transform="translate(25.561)"><text class="b" transform="translate(143 452)"><tspan x="0" y="0">VIEW ON</tspan></text></g><path class="c" d="M9.258,0A9.712,9.712,0,0,1,11.8.283a5.524,5.524,0,0,1,1.979.777,3.268,3.268,0,0,1,1.272,1.485,5.611,5.611,0,0,1,.424,2.261A3.947,3.947,0,0,1,14.77,7.28,5.119,5.119,0,0,1,12.792,8.9a4.726,4.726,0,0,1,2.686,1.837,5.567,5.567,0,0,1,.919,3.11A5.634,5.634,0,0,1,15.83,16.4a4.7,4.7,0,0,1-1.555,1.767,7.285,7.285,0,0,1-2.261.989,10.546,10.546,0,0,1-2.544.353H0V0ZM8.693,7.915A3.216,3.216,0,0,0,10.6,7.35a2.061,2.061,0,0,0,.707-1.767A2.691,2.691,0,0,0,11.1,4.452a2,2,0,0,0-.636-.707,3.55,3.55,0,0,0-.919-.353A5.712,5.712,0,0,0,8.41,3.322h-4.1V7.915H8.693ZM8.9,16.254a6.282,6.282,0,0,0,1.2-.141,2.489,2.489,0,0,0,.989-.425,2.52,2.52,0,0,0,.707-.777,3.379,3.379,0,0,0,.283-1.272,2.725,2.725,0,0,0-.848-2.192,3.727,3.727,0,0,0-2.261-.635H4.311v5.442Zm13.64-.071a3.455,3.455,0,0,0,2.544.848,3.864,3.864,0,0,0,2.049-.565,2.828,2.828,0,0,0,1.06-1.273h3.463a6.89,6.89,0,0,1-2.544,3.675A7.549,7.549,0,0,1,25.018,20a8.31,8.31,0,0,1-3.039-.566,5.645,5.645,0,0,1-2.261-1.554A5.605,5.605,0,0,1,18.3,15.547a8.312,8.312,0,0,1-.495-3.039A8.187,8.187,0,0,1,18.3,9.54a7.617,7.617,0,0,1,1.484-2.4,7.177,7.177,0,0,1,2.261-1.555,7.931,7.931,0,0,1,2.968-.565,6.593,6.593,0,0,1,3.18.707,5.737,5.737,0,0,1,2.191,1.908,8.556,8.556,0,0,1,1.272,2.686,14.827,14.827,0,0,1,.141,3.11H21.555A4.06,4.06,0,0,0,22.544,16.184ZM27,8.763a3.061,3.061,0,0,0-2.191-.777,3.36,3.36,0,0,0-1.555.353,3.7,3.7,0,0,0-.989.777,1.887,1.887,0,0,0-.495.989,4.855,4.855,0,0,0-.141.919h6.36A3.748,3.748,0,0,0,27,8.763ZM37.315,0V7.35h.071a4.16,4.16,0,0,1,1.908-1.767,5.344,5.344,0,0,1,2.261-.565,6.355,6.355,0,0,1,2.544.424,3.837,3.837,0,0,1,1.555,1.2,4.819,4.819,0,0,1,.777,1.837,12.154,12.154,0,0,1,.212,2.4v8.693H42.756V11.59a4.95,4.95,0,0,0-.565-2.615,2.07,2.07,0,0,0-1.908-.848,2.713,2.713,0,0,0-2.261.919,5.182,5.182,0,0,0-.707,3.109v7.42H33.428V0ZM49.47,7.491a5.2,5.2,0,0,1,1.555-1.485,6.924,6.924,0,0,1,2.12-.777,13.007,13.007,0,0,1,2.332-.212c.707,0,1.413.071,2.192.141a5.833,5.833,0,0,1,1.978.565,4.132,4.132,0,0,1,1.485,1.2,3.532,3.532,0,0,1,.565,2.05V16.4a14.945,14.945,0,0,0,.141,1.838,2.963,2.963,0,0,0,.495,1.342H58.375a1.725,1.725,0,0,1-.283-.635,2.407,2.407,0,0,1-.071-.707,5.417,5.417,0,0,1-2.191,1.342,7.906,7.906,0,0,1-2.544.353,5.693,5.693,0,0,1-1.908-.282,4.6,4.6,0,0,1-1.555-.778,4.071,4.071,0,0,1-1.06-1.342,5.112,5.112,0,0,1-.353-1.909,4.1,4.1,0,0,1,.424-1.979,4.628,4.628,0,0,1,1.06-1.272,5.243,5.243,0,0,1,1.555-.707,13.242,13.242,0,0,1,1.767-.353l1.7-.212q.848-.106,1.484-.212a3.693,3.693,0,0,0,1.06-.495,1.009,1.009,0,0,0,.353-.919,1.872,1.872,0,0,0-.212-.989,2.151,2.151,0,0,0-.565-.565,2.52,2.52,0,0,0-.777-.282,4.3,4.3,0,0,0-.989-.071,2.634,2.634,0,0,0-1.767.495,2.375,2.375,0,0,0-.777,1.625H48.834a4.214,4.214,0,0,1,.636-2.191ZM57.172,13c-.211.071-.494.141-.777.212s-.565.071-.919.141c-.282.071-.635.071-.919.141l-.848.212a1.657,1.657,0,0,0-.707.353,1.9,1.9,0,0,0-.495.565,1.377,1.377,0,0,0-.211.919,1.507,1.507,0,0,0,.212.848,1.9,1.9,0,0,0,.495.565,2.514,2.514,0,0,0,.777.283,3.762,3.762,0,0,0,.918.071,3.883,3.883,0,0,0,1.767-.353,2.839,2.839,0,0,0,.919-.919,2.1,2.1,0,0,0,.353-1.06,4.053,4.053,0,0,0,.071-.848V12.65a2.825,2.825,0,0,1-.637.353Zm10.39-7.633V7.35h.071a4.158,4.158,0,0,1,1.907-1.767,5.971,5.971,0,0,1,2.4-.565,6.355,6.355,0,0,1,2.544.424,3.416,3.416,0,0,1,1.555,1.2,6.311,6.311,0,0,1,.847,1.837,12.15,12.15,0,0,1,.213,2.4v8.693H73.216V11.59a4.949,4.949,0,0,0-.566-2.615,2.155,2.155,0,0,0-1.979-.919,2.829,2.829,0,0,0-2.332,1.06,5.185,5.185,0,0,0-.707,3.11v7.42H63.746V5.371ZM85.794,7.915a2.68,2.68,0,0,0-1.554.425,3.259,3.259,0,0,0-1.06,1.131,4.654,4.654,0,0,0-.566,1.484,6.364,6.364,0,0,0-.141,1.626,11.66,11.66,0,0,0,.141,1.554,4.227,4.227,0,0,0,.566,1.413,3.529,3.529,0,0,0,.989,1.06,2.685,2.685,0,0,0,1.554.425,3.178,3.178,0,0,0,2.191-.778,3.274,3.274,0,0,0,.919-2.12H92.58a6.514,6.514,0,0,1-2.192,4.312,7.1,7.1,0,0,1-4.664,1.484,7.562,7.562,0,0,1-2.9-.565,6.289,6.289,0,0,1-2.261-1.484A7,7,0,0,1,79.08,15.62a7.81,7.81,0,0,1-.494-2.9,8.314,8.314,0,0,1,.494-3.039,7.794,7.794,0,0,1,1.413-2.473,7.379,7.379,0,0,1,2.262-1.625,8.3,8.3,0,0,1,3.038-.565,8.967,8.967,0,0,1,2.4.353,6.164,6.164,0,0,1,2.049.989,4.324,4.324,0,0,1,1.484,1.7,5.99,5.99,0,0,1,.636,2.4H88.55a2.468,2.468,0,0,0-2.755-2.544ZM20.777,1.343h7.915V3.251H20.777ZM98.445,16.184a3.57,3.57,0,0,0,2.544.848,3.86,3.86,0,0,0,2.049-.565,2.818,2.818,0,0,0,1.06-1.273h3.393a6.891,6.891,0,0,1-2.545,3.675,7.55,7.55,0,0,1-4.1,1.131,8.316,8.316,0,0,1-3.04-.566,5.647,5.647,0,0,1-2.261-1.554,5.605,5.605,0,0,1-1.413-2.333,8.312,8.312,0,0,1-.495-3.039,8.187,8.187,0,0,1,.495-2.968,7.6,7.6,0,0,1,1.484-2.4A7.177,7.177,0,0,1,97.88,5.583a8.214,8.214,0,0,1,2.968-.565,6.136,6.136,0,0,1,3.11.707,5.747,5.747,0,0,1,2.191,1.908,8.556,8.556,0,0,1,1.272,2.686,9.382,9.382,0,0,1,.282,3.18H97.455a4.006,4.006,0,0,0,.99,2.686Zm4.523-7.42a3.062,3.062,0,0,0-2.191-.777,3.363,3.363,0,0,0-1.555.353,2.831,2.831,0,0,0-.989.777,2.616,2.616,0,0,0-.495.989,4.907,4.907,0,0,0-.141.919h6.36a4.831,4.831,0,0,0-.99-2.261Z" transform="translate(253.711 436)"/></g></svg>