<svg xmlns="http://www.w3.org/2000/svg" width="292" height="70" viewBox="0 0 292 70"><defs><style>.a{fill:#fff;fill-rule:evenodd;}.b,.c{fill:#ff0abd;}.b{font-size:16px;font-family:Qanelas-Bold, Qanelas;font-weight:700;}</style></defs><g transform="translate(-119 -411)"><path class="a" d="M276.014.5H15.913l-.859,0-.5,0L13.78.52l-.35.006A22.725,22.725,0,0,0,9.934.833,11.413,11.413,0,0,0,6.683,1.9,10.991,10.991,0,0,0,3.917,3.911a10.649,10.649,0,0,0-2.01,2.76A11.238,11.238,0,0,0,.838,9.921,22.171,22.171,0,0,0,.527,13.4c-.007.238-.012.482-.016.808,0,.145,0,.145,0,.29,0,.263,0,.381-.007.521V55.594c0,.195,0,.195,0,.383,0,.148,0,.262.007.53,0,.142,0,.142,0,.284,0,.326.009.571.016.816a22.166,22.166,0,0,0,.312,3.483,11.207,11.207,0,0,0,1.069,3.25,10.568,10.568,0,0,0,2.013,2.75A10.7,10.7,0,0,0,6.683,69.1a11.47,11.47,0,0,0,3.253,1.076,23,23,0,0,0,3.492.306c.57.013,1.1.019,1.625.019l.86,0H276.976l.964,0c.523,0,1.073-.006,1.626-.019a22.706,22.706,0,0,0,3.487-.306,11.657,11.657,0,0,0,3.268-1.077,10.716,10.716,0,0,0,2.763-2.009A10.882,10.882,0,0,0,291.1,64.34a11.254,11.254,0,0,0,1.06-3.256,22.694,22.694,0,0,0,.322-3.472c0-.256.005-.519.006-.817,0-.224,0-.4,0-.821,0-.125,0-.254.007-.386.006-.425.007-.766.007-1.542V16.956c0-.968,0-1.394-.014-1.935,0-.407,0-.588,0-.815,0-.3,0-.561-.006-.8a22.758,22.758,0,0,0-.324-3.49A11.257,11.257,0,0,0,291.1,6.672,11.03,11.03,0,0,0,286.322,1.9a11.6,11.6,0,0,0-3.27-1.071A22.4,22.4,0,0,0,279.57.526l-.312-.005-.506-.008c-.311,0-.57-.008-.815-.009l-.953,0Z" transform="translate(118.5 410.5)"/><g transform="translate(17.203)"><text class="b" transform="translate(143 452)"><tspan x="0" y="0">VIEW ON</tspan></text><g transform="translate(-962.596 91.488)"><path class="c" d="M1199.4,338.623a10.611,10.611,0,0,0-5.648,7.124c-1.016,4.342,3.209,6.179,3.556,5.577.407-.707-.757-.946-1-3.2a9.469,9.469,0,0,1,2.745-7.588c.317-.265.3.1.3.786,0,1.22-.068,12.174-.068,14.461a20.251,20.251,0,0,1-.357,5.035c-.233.978-.606,1.639-.323,1.894.316.285,1.667-.393,2.45-1.484a8.142,8.142,0,0,0,1.325-4.59c.071-2.058.068-5.325.071-7.188,0-1.709.029-6.712-.03-9.72C1202.413,338.993,1200.367,338.219,1199.4,338.623Zm106.485,16.252c-.335,0-.488.345-.614.926-.439,2.021-.9,2.477-1.494,2.477-.664,0-1.261-1-1.414-3a66.546,66.546,0,0,1,.053-7.358c.031-.592-.132-1.179-1.722-1.756-.684-.248-1.678-.614-2.173.581a29.787,29.787,0,0,0-2.074,7.144c-.007.056-.076.068-.088-.064a55.257,55.257,0,0,1-.288-5.785,1.733,1.733,0,0,0-.859-1.655c-.465-.294-1.878-.813-2.387-.2a13.041,13.041,0,0,0-1.481,3.477c-.431,1.311-.731,2.2-.731,2.2s.005-3.536.011-4.877a.687.687,0,0,0-.45-.7,9.393,9.393,0,0,0-1.793-.365c-.486,0-.6.272-.6.667,0,.052-.077,4.656-.077,7.875,0,.139,0,.292,0,.454-.269,1.48-1.141,3.488-2.089,3.488s-1.4-.84-1.4-4.677c0-2.239.067-3.212.1-4.831.02-.933.057-1.649.054-1.811-.007-.5-.868-.75-1.269-.843a3.761,3.761,0,0,0-1.027-.114.639.639,0,0,0-.66.624c0,.188,0,.543,0,.543a3.707,3.707,0,0,0-1.834-1.486,3.528,3.528,0,0,0-4.066,1.534,9.33,9.33,0,0,0-1.653,4.726,14.023,14.023,0,0,0,.172,4.295c-.335,1.447-.956,2.04-1.637,2.04-.988,0-1.7-1.612-1.621-4.4a25.329,25.329,0,0,1,.823-4.984,1.613,1.613,0,0,0-.316-1.607,1.993,1.993,0,0,0-1.98-.323c-.7.164-1.7.34-2.608.475a5.283,5.283,0,0,0,.1-.607c.238-2.031-1.969-1.866-2.674-1.217a2.5,2.5,0,0,0-.815,1.665,1.964,1.964,0,0,0,.891,1.918,19.854,19.854,0,0,1-2.086,5.19,22.359,22.359,0,0,1-1.3,2.043c0-.236,0-.473,0-.709-.011-3.357.033-6,.053-6.951.019-.933.057-1.63.055-1.792-.006-.365-.218-.5-.661-.677a4.731,4.731,0,0,0-1.335-.3c-.606-.047-.971.274-.961.655,0,.071,0,.512,0,.512a3.711,3.711,0,0,0-1.834-1.486,3.526,3.526,0,0,0-4.066,1.533,10.112,10.112,0,0,0-1.653,4.711,14.41,14.41,0,0,0,.085,4.041c-.229,1.129-.885,2.309-1.628,2.309-.949,0-1.489-.839-1.489-4.677,0-2.238.067-3.212.1-4.831.019-.932.056-1.649.054-1.811-.007-.5-.869-.75-1.27-.843a3.711,3.711,0,0,0-1.06-.112.682.682,0,0,0-.625.6v.565a3.709,3.709,0,0,0-1.833-1.486,3.539,3.539,0,0,0-4.067,1.533,8.955,8.955,0,0,0-1.653,4.689,15.726,15.726,0,0,0-.124,2.049c-.3,1.811-1.6,3.9-2.674,3.9-.627,0-1.223-1.215-1.223-3.8,0-3.448.214-8.357.25-8.83,0,0,1.352-.023,1.613-.026.675-.008,1.286.008,2.184-.038.45-.022.884-1.639.419-1.839a16.063,16.063,0,0,0-2.29-.183c-.5-.011-1.879-.113-1.879-.113s.124-3.259.153-3.6c.025-.287-.347-.435-.559-.525a7.728,7.728,0,0,0-1.53-.436c-.758-.157-1.1,0-1.17.636-.1.972-.153,3.817-.153,3.817-.557,0-2.458-.109-3.014-.109-.518,0-1.076,2.224-.361,2.252.823.032,2.257.059,3.207.088,0,0-.042,4.99-.042,6.53,0,.164,0,.322,0,.475a7.534,7.534,0,0,1-2.366,4.2c.4-1.8-.413-3.158-1.868-4.3-.537-.423-1.6-1.223-2.78-2.1a7.162,7.162,0,0,0,1.294-2.037c.431-.964.45-2.067-.608-2.31a3.164,3.164,0,0,0-3.621,2.253,2.615,2.615,0,0,0,.5,2.669c.048.06.1.121.153.182-.4.761-.937,1.785-1.4,2.58-1.275,2.205-2.238,3.95-2.966,3.95-.582,0-.574-1.771-.574-3.43,0-1.429.106-3.578.19-5.8a1.62,1.62,0,0,0-.957-1.535,4.314,4.314,0,0,0-1.638-.684c-.693,0-2.694.1-4.584,5.562-.238.69-.706,1.945-.706,1.945l.04-6.575a.458.458,0,0,0-.27-.4,4.67,4.67,0,0,0-1.926-.527c-.36,0-.54.168-.54.5l-.067,10.287a15.162,15.162,0,0,0,.1,2.093,2.2,2.2,0,0,0,.356.917,1.025,1.025,0,0,0,.627.4c.274.056,1.774.249,1.852-.324a20.972,20.972,0,0,1,.884-4.2c1.226-4.313,2.824-6.417,3.575-7.164.131-.131.281-.138.274.075-.032.946-.145,3.308-.221,5.316-.2,5.371.774,6.367,2.17,6.367,1.069,0,2.575-1.062,4.189-3.749,1.006-1.674,1.984-3.316,2.686-4.5.489.453,1.038.941,1.587,1.462,1.275,1.21,1.694,2.36,1.416,3.451-.212.834-1.012,1.693-2.436.858-.415-.244-.593-.432-1.01-.707a.718.718,0,0,0-.772-.037,2.746,2.746,0,0,0-1.012,1.546c-.169.616.448.942,1.087,1.227a8.433,8.433,0,0,0,2.489.492c2.94.1,5.3-1.419,6.936-5.336.293,3.382,1.543,5.3,3.713,5.3,1.451,0,2.906-1.875,3.543-3.721a6.533,6.533,0,0,0,.8,1.96c1.672,2.65,4.917,2.079,6.547-.171a4.2,4.2,0,0,0,.58-.945,3.067,3.067,0,0,0,2.929,2.867c1.1,0,2.23-.519,3.024-2.306a5.531,5.531,0,0,0,.305.555c1.673,2.65,4.918,2.079,6.547-.171.077-.105.144-.2.2-.287l.048,1.4-1.5,1.376c-2.516,2.305-4.426,4.054-4.567,6.09-.179,2.6,1.926,3.561,3.52,3.687a4.491,4.491,0,0,0,4.03-2.108,12.024,12.024,0,0,0,1.258-6.076c-.015-.98-.039-2.225-.059-3.561a28.5,28.5,0,0,0,2.794-3.838,29.014,29.014,0,0,0,2.615-5.6s.93.008,1.922-.057c.317-.021.408.044.349.276-.071.281-1.253,4.841-.174,7.879a3.808,3.808,0,0,0,3.391,2.749,3.366,3.366,0,0,0,2.853-2.168,4.628,4.628,0,0,0,.227.413c1.673,2.65,4.906,2.076,6.547-.171a6.791,6.791,0,0,0,.581-.945,3.183,3.183,0,0,0,3.042,2.878c1.02,0,1.988-.418,2.774-2.277a8.394,8.394,0,0,0,.166,1.7c.05.129.34.291.551.369a4.207,4.207,0,0,0,2.237.111c.244-.049.434-.245.46-.75a29.8,29.8,0,0,1,.429-5.214,15.319,15.319,0,0,1,1.6-4.394c.167-.3.356-.349.363-.032.014.64.046,2.522.308,5.05a11.522,11.522,0,0,0,.645,3.307,1.821,1.821,0,0,0,1.825,1.041c.36,0,1.113-.1,1.046-.732a20.226,20.226,0,0,1,.69-4.955,24.088,24.088,0,0,1,1.422-4c.1-.218.141-.046.139-.013a35.939,35.939,0,0,0,.324,7.467c.68,2.986,2.648,3.32,3.334,3.32,1.465,0,2.662-1.114,3.066-4.045.1-.706-.046-1.25-.477-1.25Zm-61.343-1.813a9.566,9.566,0,0,1-.872,3.79c-.879,1.705-2.618,2.246-3.384-.218a13.2,13.2,0,0,1-.135-5.506c.341-1.942,1.2-3.318,2.53-3.188C1244.052,348.074,1244.718,349.835,1244.543,353.062Zm13.385.023a10.561,10.561,0,0,1-.872,3.768c-.855,1.716-2.643,2.253-3.384-.218a12.4,12.4,0,0,1-.134-5.251c.325-1.786,1.113-3.444,2.529-3.444C1257.444,347.94,1258.123,349.45,1257.928,353.085Zm.35,9.993c-.019,2.673-.439,5.015-1.341,5.7a1.614,1.614,0,0,1-2.642-1.709c.315-1.725,1.8-3.487,3.987-5.641C1258.281,361.424,1258.286,361.915,1258.278,363.078Zm23.107-9.978a9.449,9.449,0,0,1-.873,3.752c-.855,1.717-2.63,2.25-3.383-.218a13.938,13.938,0,0,1-.135-5.468c.3-1.912,1.14-3.356,2.529-3.226C1280.894,348.069,1281.536,349.835,1281.385,353.1Z"/></g></g></g></svg>