<svg xmlns="http://www.w3.org/2000/svg" width="194.727" height="32" viewBox="0 0 194.727 32"><defs><style>.a{fill:#fff;}.b{fill:none;}</style></defs><g transform="translate(35.821 -4.13)"><path class="a" d="M19.423,29.2H14.241V19.122L11.521,26.9H7.636l-2.72-7.773V29.2H-.265V11.063H6.214l3.367,9.482,3.369-9.482h6.476Z"/><path class="a" d="M31.78,21.374V29.2H26.6V21.374L20.718,11.063h5.748l2.72,5.492,2.721-5.492h5.748Z"/><path class="a" d="M43.878,11.063V29.2H38.7V11.063Z"/><path class="a" d="M60.975,11.063V29.2H56.831l-5.182-8.548V29.2H46.468V11.063h4.145l5.181,8.55v-8.55Z"/><path class="a" d="M75.1,16.091H71.34V29.2H66.157V16.091H62.4V11.063H75.1Z"/><path class="a" d="M87.918,24.431V29.2H76.52V11.063H87.789V15.83H81.7v2.021H87.14v4.4H81.7v2.175Z"/><path class="a" d="M96,23.473h-.958v5.7H89.86V11.037h7a7.78,7.78,0,0,1,3.51.778,5.913,5.913,0,0,1,2.463,2.227,6.3,6.3,0,0,1,.889,3.368,5.71,5.71,0,0,1-.751,2.928,6.02,6.02,0,0,1-2.1,2.124l4.664,6.71H99.809ZM95.043,15.8v3.16h1.814a1.688,1.688,0,0,0,1.244-.375,1.519,1.519,0,0,0,.44-1.179,1.562,1.562,0,0,0-.44-1.192,1.753,1.753,0,0,0-1.244-.415Z"/><path class="a" d="M117.711,24.431V29.2h-11.4V11.063h11.271V15.83h-6.089v2.021h5.439v4.4h-5.439v2.175Z"/><path class="a" d="M120.561,28.061a5.739,5.739,0,0,1-1.942-4.767h5.18a1.305,1.305,0,0,0,.506,1.153,2.568,2.568,0,0,0,1.463.35,1.931,1.931,0,0,0,1.126-.285.858.858,0,0,0-.234-1.555,18.158,18.158,0,0,0-2.189-.725,11.331,11.331,0,0,1-4.041-2.085,4.669,4.669,0,0,1-1.632-3.8,5.518,5.518,0,0,1,.854-3.109,5.254,5.254,0,0,1,2.332-1.942,8.24,8.24,0,0,1,3.341-.651,7.409,7.409,0,0,1,4.806,1.515,5.492,5.492,0,0,1,1.879,4.547h-5.182a1.187,1.187,0,0,0-.363-.9,1.6,1.6,0,0,0-1.14-.348,1.731,1.731,0,0,0-1,.245.777.777,0,0,0-.35.661.949.949,0,0,0,.61.855,11.987,11.987,0,0,0,1.956.7l.647.181a9.765,9.765,0,0,1,3.757,2.048,4.8,4.8,0,0,1,1.529,3.755A5.061,5.061,0,0,1,130.6,28.12a7.614,7.614,0,0,1-4.883,1.491A8.011,8.011,0,0,1,120.561,28.061Z"/><path class="a" d="M145.044,16.091h-3.757V29.2H136.1V16.091h-3.757V11.063h12.7Z"/><path class="a" d="M146.984,28.061a5.739,5.739,0,0,1-1.942-4.767h5.18a1.305,1.305,0,0,0,.506,1.153,2.568,2.568,0,0,0,1.463.35,1.931,1.931,0,0,0,1.126-.285.858.858,0,0,0-.234-1.555,18.141,18.141,0,0,0-2.188-.725,11.327,11.327,0,0,1-4.042-2.085,4.669,4.669,0,0,1-1.632-3.8,5.518,5.518,0,0,1,.854-3.109,5.265,5.265,0,0,1,2.332-1.942,8.243,8.243,0,0,1,3.341-.648,7.407,7.407,0,0,1,4.806,1.512,5.492,5.492,0,0,1,1.879,4.547h-5.182a1.186,1.186,0,0,0-.362-.9,1.606,1.606,0,0,0-1.141-.348,1.725,1.725,0,0,0-1,.245.775.775,0,0,0-.351.661.949.949,0,0,0,.61.855,11.987,11.987,0,0,0,1.956.7l.647.181a9.764,9.764,0,0,1,3.757,2.048,4.793,4.793,0,0,1,1.529,3.755,5.062,5.062,0,0,1-1.879,4.208,7.611,7.611,0,0,1-4.883,1.49A8.007,8.007,0,0,1,146.984,28.061Z"/><path class="b" d="M-35.821,4.13h32v32h-32Z"/><path class="a" d="M-19.821,33.43a13.3,13.3,0,0,1-13.3-13.3,13.3,13.3,0,0,1,13.3-13.3,13.3,13.3,0,0,1,13.3,13.3h0A13.3,13.3,0,0,1-19.821,33.43Zm0-2.66A10.64,10.64,0,0,0-9.181,20.13,10.64,10.64,0,0,0-19.821,9.49a10.64,10.64,0,0,0-10.64,10.64h0A10.639,10.639,0,0,0-19.822,30.771h0Zm-6.65-9.31h2.66a3.99,3.99,0,0,0,3.99,3.99,3.99,3.99,0,0,0,3.99-3.99h2.66a6.65,6.65,0,0,1-6.651,6.649A6.649,6.649,0,0,1-26.471,21.46Zm1.329-2.659a2,2,0,0,1-1.995-2,2,2,0,0,1,1.995-1.995,2,2,0,0,1,2,1.995,2,2,0,0,1-2,2Zm10.64,0a2,2,0,0,1-1.995-2A2,2,0,0,1-14.5,14.81a2,2,0,0,1,2,1.995A2,2,0,0,1-14.5,18.8Z"/></g></svg>