<svg xmlns="http://www.w3.org/2000/svg" width="292" height="70" viewBox="0 0 292 70">
  <g id="Group_11" data-name="Group 11" transform="translate(-119 -411)">
    <path id="Path" d="M276.014.5H15.913l-.859,0-.5,0L13.78.52l-.35.006A22.725,22.725,0,0,0,9.934.833,11.413,11.413,0,0,0,6.683,1.9,10.991,10.991,0,0,0,3.917,3.911a10.649,10.649,0,0,0-2.01,2.76A11.238,11.238,0,0,0,.838,9.921,22.171,22.171,0,0,0,.527,13.4c-.007.238-.012.482-.016.808,0,.145,0,.145,0,.29,0,.263,0,.381-.007.521V55.594c0,.195,0,.195,0,.383,0,.148,0,.262.007.53,0,.142,0,.142,0,.284,0,.326.009.571.016.816a22.166,22.166,0,0,0,.312,3.483,11.207,11.207,0,0,0,1.069,3.25,10.568,10.568,0,0,0,2.013,2.75A10.7,10.7,0,0,0,6.683,69.1a11.47,11.47,0,0,0,3.253,1.076,23,23,0,0,0,3.492.306c.57.013,1.1.019,1.625.019l.86,0H276.976l.964,0c.523,0,1.073-.006,1.626-.019a22.706,22.706,0,0,0,3.487-.306,11.657,11.657,0,0,0,3.268-1.077,10.716,10.716,0,0,0,2.763-2.009A10.882,10.882,0,0,0,291.1,64.34a11.254,11.254,0,0,0,1.06-3.256,22.694,22.694,0,0,0,.322-3.472c0-.256.005-.519.006-.817,0-.224,0-.4,0-.821,0-.125,0-.254.007-.386.006-.425.007-.766.007-1.542V16.956c0-.968,0-1.394-.014-1.935,0-.407,0-.588,0-.815,0-.3,0-.561-.006-.8a22.758,22.758,0,0,0-.324-3.49A11.257,11.257,0,0,0,291.1,6.672,11.03,11.03,0,0,0,286.322,1.9a11.6,11.6,0,0,0-3.27-1.071A22.4,22.4,0,0,0,279.57.526l-.312-.005-.506-.008c-.311,0-.57-.008-.815-.009l-.953,0Z" transform="translate(118.5 410.5)" fill="#fff" fill-rule="evenodd"/>
    <g id="Group_4" data-name="Group 4" transform="translate(9)">
      <text id="WATCH_ON" data-name="WATCH ON" transform="translate(152 452)" fill="#e8003e" font-size="16" font-family="Qanelas-Bold, Qanelas" font-weight="700"><tspan x="0" y="0">WATCH ON</tspan></text>
      <path id="netflix-2015-logo" d="M15.4,28.066c-1.685.293-3.4.381-5.173.615l-5.409-15.7V29.356C3.133,29.531,1.6,29.766,0,30V0H4.493l6.148,17.022V0H15.4Zm9.311-17.08c1.833,0,4.641-.088,6.326-.088v4.687c-2.1,0-4.552,0-6.326.088v6.973c2.779-.176,5.557-.41,8.365-.5V26.66L19.982,27.685V0H33.077V4.688H24.712Zm25.953-6.3H45.758V26.25c-1.6,0-3.192,0-4.729.058V4.688H36.122V0H50.665V4.688Zm7.685,5.977h6.474v4.687H58.35V25.986H53.709V0H66.922V4.688H58.35ZM74.607,21.885c2.69.058,5.409.264,8.04.41v4.629c-4.227-.264-8.454-.527-12.77-.615V0h4.729Zm12.031,5.361c1.508.088,3.1.176,4.641.351V0H86.638ZM112,0l-6,14.268L112,30c-1.774-.234-3.547-.557-5.321-.85l-3.4-8.672-3.458,7.969c-1.715-.293-3.37-.381-5.084-.616l6.089-13.74L95.329,0h5.084l3.1,7.881L106.827,0Z" transform="translate(248 431)" fill="#e8003e"/>
    </g>
  </g>
</svg>
