<svg xmlns="http://www.w3.org/2000/svg" width="292" height="70" viewBox="0 0 292 70"><defs><style>.a{fill:#fff;}.a,.b,.c{fill-rule:evenodd;}.b{fill:#1db954;}</style></defs><g transform="translate(-0.5 -0.5)"><g transform="translate(0.5 0.5)"><path class="a" d="M276.014.5H15.913l-.859,0-.5,0L13.78.52l-.35.006A22.725,22.725,0,0,0,9.934.833,11.413,11.413,0,0,0,6.683,1.9,10.991,10.991,0,0,0,3.917,3.911a10.649,10.649,0,0,0-2.01,2.76A11.238,11.238,0,0,0,.838,9.921,22.171,22.171,0,0,0,.527,13.4c-.007.238-.012.482-.016.808,0,.145,0,.145,0,.29,0,.263,0,.381-.007.521V55.594c0,.195,0,.195,0,.383,0,.148,0,.262.007.53,0,.142,0,.142,0,.284,0,.326.009.571.016.816a22.166,22.166,0,0,0,.312,3.483,11.207,11.207,0,0,0,1.069,3.25,10.568,10.568,0,0,0,2.013,2.75A10.7,10.7,0,0,0,6.683,69.1a11.47,11.47,0,0,0,3.253,1.076,23,23,0,0,0,3.492.306c.57.013,1.1.019,1.625.019l.86,0H276.976l.964,0c.523,0,1.073-.006,1.626-.019a22.706,22.706,0,0,0,3.487-.306,11.657,11.657,0,0,0,3.268-1.077,10.716,10.716,0,0,0,2.763-2.009A10.882,10.882,0,0,0,291.1,64.34a11.254,11.254,0,0,0,1.06-3.256,22.694,22.694,0,0,0,.322-3.472c0-.256.005-.519.006-.817,0-.224,0-.4,0-.821,0-.125,0-.254.007-.386.006-.425.007-.766.007-1.542V16.956c0-.968,0-1.394-.014-1.935,0-.407,0-.588,0-.815,0-.3,0-.561-.006-.8a22.758,22.758,0,0,0-.324-3.49A11.257,11.257,0,0,0,291.1,6.672,11.03,11.03,0,0,0,286.322,1.9a11.6,11.6,0,0,0-3.27-1.071A22.4,22.4,0,0,0,279.57.526l-.312-.005-.506-.008c-.311,0-.57-.008-.815-.009l-.953,0Z" transform="translate(-0.5 -0.5)"/><path class="b" d="M174.321,35.012a1.915,1.915,0,0,0,2.643-.683,1.967,1.967,0,0,0-.674-2.676c-7.653-4.6-19.762-5.032-27.046-2.793a1.958,1.958,0,0,0-1.286,2.436,1.925,1.925,0,0,0,2.405,1.3C156.709,30.647,167.673,31.015,174.321,35.012Zm-.218,5.921a1.64,1.64,0,0,0-.529-2.238c-6.365-3.961-15.676-5.076-23.166-2.774a1.634,1.634,0,0,0-1.072,2.03,1.607,1.607,0,0,0,2.006,1.085c6.557-2.015,15.007-1.016,20.549,2.433A1.6,1.6,0,0,0,174.1,40.933Zm-2.523,5.686a1.311,1.311,0,0,0-.426-1.79c-5.436-3.363-12.174-4.146-20.03-2.327a1.3,1.3,0,0,0-.967,1.558,1.284,1.284,0,0,0,1.539.979c7.178-1.66,13.274-.983,18.116,2.014A1.275,1.275,0,0,0,171.58,46.619ZM162.122,16.5A20.883,20.883,0,1,1,141.5,37.381,20.753,20.753,0,0,1,162.122,16.5Zm35.483,19.277c4.338,1.068,6.107,2.726,6.107,5.725,0,3.548-2.677,5.84-6.82,5.84a11.541,11.541,0,0,1-7.849-3.048.236.236,0,0,1-.023-.327l1.949-2.349a.23.23,0,0,1,.16-.083.243.243,0,0,1,.171.056,8.125,8.125,0,0,0,5.67,2.372c1.871,0,3.034-.82,3.034-2.139,0-1.19-.575-1.856-3.982-2.651-4-.98-6.32-2.249-6.32-5.833,0-3.343,2.685-5.679,6.53-5.679a10.437,10.437,0,0,1,6.838,2.4.239.239,0,0,1,.044.321l-1.739,2.482a.233.233,0,0,1-.33.053,8.035,8.035,0,0,0-4.867-1.872c-1.656,0-2.77.806-2.77,2C193.411,34.314,194.045,34.918,197.606,35.777ZM216.093,39.8c0-2.491-1.576-4.3-3.745-4.3s-3.825,1.847-3.825,4.3,1.645,4.3,3.825,4.3C214.553,44.094,216.093,42.327,216.093,39.8Zm-3.007-7.574c3.337,0,6.714,2.6,6.714,7.574s-3.378,7.572-6.714,7.572a5.7,5.7,0,0,1-4.483-2.055v5.793a.235.235,0,0,1-.233.237h-3.188a.235.235,0,0,1-.233-.237V32.753a.235.235,0,0,1,.233-.237h3.188a.235.235,0,0,1,.233.237v1.652A5.56,5.56,0,0,1,213.085,32.222Zm15.372,11.9a4,4,0,0,0,3.982-4.271,4.1,4.1,0,0,0-4.035-4.327,3.988,3.988,0,0,0-3.956,4.272A4.084,4.084,0,0,0,228.457,44.12Zm0-11.9a7.588,7.588,0,1,1-7.663,7.628A7.524,7.524,0,0,1,228.457,32.222Zm16.812.3a.235.235,0,0,1,.232.237v2.775a.234.234,0,0,1-.232.236h-3.508v6.673c0,1.054.457,1.524,1.479,1.524a3.977,3.977,0,0,0,1.872-.457.231.231,0,0,1,.227.011.238.238,0,0,1,.111.2v2.642a.236.236,0,0,1-.118.2,5.759,5.759,0,0,1-2.987.753c-2.812,0-4.239-1.471-4.239-4.372V35.764h-1.533a.234.234,0,0,1-.232-.236V32.753a.234.234,0,0,1,.232-.237h1.533V28.885a.235.235,0,0,1,.234-.236h3.188a.234.234,0,0,1,.233.236v3.632Zm12.223.014h5.446a.232.232,0,0,1,.218.152l3.724,9.84,3.4-9.834a.234.234,0,0,1,.221-.159h3.319a.232.232,0,0,1,.192.1.239.239,0,0,1,.025.22l-5.531,14.473c-1.147,2.987-2.449,4.1-4.8,4.1a6.649,6.649,0,0,1-3.4-.883.236.236,0,0,1-.1-.305l1.081-2.4a.229.229,0,0,1,.324-.11,3.643,3.643,0,0,0,1.758.5c.695,0,1.2-.231,1.722-1.395l-4.56-11.071h-2.977V46.838a.235.235,0,0,1-.234.236h-3.188a.234.234,0,0,1-.232-.236V35.764h-1.532a.236.236,0,0,1-.234-.236V32.739a.236.236,0,0,1,.234-.236h1.532V31.82c0-3.175,1.556-4.854,4.5-4.854a8.658,8.658,0,0,1,2.65.386.236.236,0,0,1,.165.227V30.3a.236.236,0,0,1-.1.192.231.231,0,0,1-.21.033,5.32,5.32,0,0,0-1.8-.336c-1.115,0-1.611.585-1.611,1.9Zm-7.086-.014a.235.235,0,0,1,.233.237V46.838a.235.235,0,0,1-.233.236h-3.188a.235.235,0,0,1-.233-.236V32.753a.235.235,0,0,1,.233-.237ZM248.828,26.1a2.315,2.315,0,1,1-2.288,2.315A2.3,2.3,0,0,1,248.828,26.1Zm28.061,7.814h-.584v.754h.584c.292,0,.466-.144.466-.378S277.181,33.918,276.89,33.918Zm.379,1.076.635.9h-.535l-.571-.825h-.491v.825h-.448V33.509h1.05c.547,0,.907.283.907.761A.71.71,0,0,1,277.268,34.994Zm-.5-2.279a2.052,2.052,0,1,0,2.008,2.045A2.019,2.019,0,0,0,276.771,32.715Zm-.012,4.33a2.278,2.278,0,1,1,2.255-2.285A2.249,2.249,0,0,1,276.759,37.045Z" transform="translate(-15.39 -2.382)"/><path class="c" d="M38.31,44.361H31.5V33.725h2.07V42.38h4.74Zm4.937,0h-2.1V33.725h2.1Zm11-8.1-1.86.57a1.816,1.816,0,0,0-1.935-1.5,1.506,1.506,0,0,0-1.665,1.35c0,.585.375,1.05,1.155,1.2l1.485.285a3.245,3.245,0,0,1,2.97,3.135c0,1.635-1.365,3.285-3.84,3.285-2.82,0-4.065-1.815-4.23-3.33l1.92-.51a2.134,2.134,0,0,0,2.325,2c1.11,0,1.725-.555,1.725-1.305,0-.615-.465-1.1-1.29-1.26l-1.485-.3a3.1,3.1,0,0,1-2.79-3.045,3.522,3.522,0,0,1,3.705-3.33C53.014,33.5,54,35.06,54.244,36.26Zm11.207-.57h-3.36v8.67H60.006V35.69h-3.36V33.725h8.805Zm9.5,8.67h-6.66V33.725h6.66v1.95h-4.59v2.43h4.155V39.95H70.358v2.46h4.59Zm12.437,0H85.211l-4.83-7.545v7.545H78.31V33.725h2.58l4.425,7.035V33.725h2.07Zm10.039-5.325a3.329,3.329,0,1,0,6.645,0,3.329,3.329,0,1,0-6.645,0Zm-2.145.015a5.468,5.468,0,1,1,5.46,5.535A5.36,5.36,0,0,1,95.279,39.05Zm23.223,5.31h-2.175l-4.83-7.545v7.545h-2.07V33.725h2.58l4.425,7.035V33.725h2.07Z" transform="translate(-4.146 -4.237)"/></g></g></svg>